<?xml version="1.0" standalone="no"?>
<!DOCTYPE svg PUBLIC "-//W3C//DTD SVG 20010904//EN"
 "http://www.w3.org/TR/2001/REC-SVG-20010904/DTD/svg10.dtd">
<svg version="1.0" xmlns="http://www.w3.org/2000/svg"
 width="800.000000pt" height="800.000000pt" viewBox="0 0 800.000000 800.000000"
 preserveAspectRatio="xMidYMid meet">
<metadata>
Created by potrace 1.11, written by Peter Selinger 2001-2013
</metadata>
<g transform="translate(0.000000,800.000000) scale(0.100000,-0.100000)"
fill="#000000" stroke="none">
<path d="M2502 7240 c-12 -3 -60 -43 -108 -89 -98 -95 -144 -168 -144 -231 0
-60 -14 -80 -55 -80 -18 0 -37 5 -40 10 -4 6 -10 8 -15 5 -5 -3 -19 -1 -29 5
-27 14 -76 61 -74 69 1 4 -32 18 -73 32 -40 13 -74 27 -74 30 0 4 -12 14 -26
24 -15 9 -23 12 -20 6 5 -8 -25 -12 -101 -13 -179 -3 -197 -4 -221 -12 -13 -4
-27 -19 -33 -32 -5 -15 -14 -22 -21 -18 -6 4 -8 3 -5 -3 4 -6 0 -13 -8 -17 -8
-3 -12 -11 -9 -19 3 -8 -6 -21 -20 -31 -21 -13 -26 -24 -26 -61 0 -24 4 -47
10 -50 5 -3 9 -24 8 -45 -1 -23 -5 -37 -11 -33 -6 3 -7 2 -4 -4 7 -11 -23
-115 -36 -124 -5 -3 -8 -8 -7 -10 1 -2 -1 -11 -4 -19 -3 -8 -6 -24 -8 -35 -2
-11 -13 -24 -24 -29 -12 -5 -26 -23 -33 -40 -11 -33 -65 -71 -83 -59 -7 3 -8
1 -4 -5 4 -7 2 -12 -4 -12 -6 0 -29 -17 -51 -37 -23 -21 -49 -37 -60 -37 -10
1 -17 -2 -14 -6 7 -11 -40 -51 -49 -43 -4 5 -6 2 -4 -6 1 -8 -7 -20 -19 -26
-13 -7 -20 -14 -18 -17 8 -8 -34 -78 -68 -113 -23 -24 -27 -36 -23 -60 8 -39
14 -44 64 -46 36 -3 45 -8 62 -37 23 -39 25 -77 5 -112 -8 -14 -15 -20 -15
-15 -1 6 -5 0 -11 -13 -5 -13 -13 -21 -18 -18 -5 3 -12 -1 -15 -10 -4 -10 -12
-14 -23 -10 -10 4 -14 4 -10 0 16 -17 -77 -58 -138 -61 -76 -4 -86 -5 -80 -11
2 -3 -18 -22 -46 -43 -29 -21 -58 -47 -65 -57 -8 -12 -31 -22 -60 -27 -26 -4
-60 -16 -75 -27 -25 -19 -28 -27 -25 -65 2 -25 10 -51 18 -59 13 -13 26 -17
113 -30 22 -4 43 -11 47 -17 4 -6 28 -13 55 -16 l48 -6 9 -130 c6 -91 5 -145
-3 -181 -12 -52 -40 -91 -56 -77 -4 5 -5 3 -2 -3 8 -13 -20 -74 -34 -74 -5 0
-9 -11 -9 -23 0 -13 -7 -37 -14 -53 -8 -16 -16 -49 -17 -74 -2 -25 -9 -51 -16
-58 -8 -8 -13 -37 -13 -71 0 -32 -6 -65 -14 -76 -14 -20 -10 -55 7 -55 6 0 18
-6 26 -14 9 -7 43 -21 76 -31 33 -10 66 -23 74 -29 19 -15 99 -35 139 -36 17
0 32 -5 32 -10 0 -11 44 -32 72 -35 10 -1 26 -12 36 -25 17 -21 25 -22 115
-21 l97 2 0 -79 c0 -52 -5 -90 -16 -111 -10 -21 -13 -42 -9 -63 4 -17 7 -70 7
-118 l-1 -86 40 -45 c21 -24 39 -50 39 -56 0 -7 5 -13 10 -13 6 0 23 -12 39
-27 16 -16 45 -39 65 -53 19 -14 36 -30 36 -37 0 -6 12 -13 28 -15 24 -3 27
-7 30 -46 2 -27 -2 -47 -11 -56 -11 -12 -13 -42 -10 -148 2 -73 8 -137 14
-143 5 -5 9 -19 9 -31 0 -12 4 -24 10 -26 10 -3 18 -35 19 -75 1 -15 6 -21 15
-17 9 3 14 -3 15 -20 3 -49 4 -55 13 -50 4 3 8 -4 8 -15 0 -11 13 -27 30 -38
16 -9 30 -22 30 -28 0 -6 9 -21 20 -33 12 -13 20 -35 20 -56 0 -19 5 -38 10
-41 6 -3 10 -17 10 -30 0 -12 7 -26 16 -29 8 -3 12 -10 9 -16 -3 -5 -1 -10 4
-10 6 0 11 -9 11 -20 0 -11 5 -20 10 -20 6 0 10 -5 10 -12 0 -16 40 -97 51
-104 5 -3 9 -20 9 -38 0 -19 7 -39 15 -46 8 -7 15 -25 15 -40 0 -15 7 -33 15
-40 9 -7 14 -19 11 -26 -3 -8 1 -17 10 -22 8 -4 16 -19 19 -31 2 -13 11 -31
20 -41 8 -9 15 -21 15 -27 0 -6 7 -16 15 -23 8 -7 15 -21 15 -30 0 -10 3 -20
8 -22 12 -5 72 -96 72 -110 0 -7 14 -26 30 -42 17 -16 30 -38 30 -48 0 -10 7
-21 15 -24 8 -4 15 -16 15 -28 0 -12 13 -32 30 -46 16 -14 30 -31 30 -39 0
-16 61 -100 73 -101 5 0 23 -16 40 -35 17 -19 37 -35 44 -35 7 0 13 -7 13 -15
0 -8 3 -14 8 -12 9 3 47 -35 55 -55 4 -11 13 -15 27 -11 13 4 25 0 30 -8 6 -9
28 -13 70 -11 39 1 72 -4 91 -14 26 -13 60 -14 237 -8 114 3 215 7 224 7 9 1
14 5 11 10 -3 5 10 8 29 5 27 -3 35 0 34 11 -1 9 8 17 19 19 11 2 24 11 28 18
5 8 13 11 19 8 6 -4 8 -3 5 3 -4 6 9 30 28 54 19 24 35 54 35 67 0 13 6 22 15
22 10 0 15 10 15 31 0 17 4 28 10 24 9 -5 12 1 9 21 0 4 5 11 13 15 11 7 11 9
-1 9 -11 0 -11 3 -1 15 7 8 17 12 23 8 5 -3 7 -1 3 5 -8 14 30 88 50 96 8 3
13 10 10 14 -3 5 4 26 14 48 11 21 20 34 20 29 0 -5 9 1 20 13 11 12 20 24 20
27 -1 3 13 18 30 33 16 14 30 34 30 43 0 9 7 22 15 29 8 7 15 21 15 31 0 11 4
19 9 19 5 0 14 14 20 30 5 17 15 30 22 30 6 0 9 7 5 15 -3 8 -1 15 4 15 14 0
170 155 170 169 0 6 5 11 10 11 6 0 10 13 10 29 0 16 7 34 15 41 18 15 95 129
95 140 0 4 7 11 15 14 9 3 23 22 31 42 8 20 34 55 57 77 36 37 160 193 163
207 0 3 6 18 12 33 7 16 12 35 12 43 0 8 5 14 10 14 6 0 10 53 10 138 0 99 5
149 16 182 13 36 15 67 9 151 -6 104 -6 106 16 112 14 4 20 11 16 21 -4 9 -2
16 3 16 5 0 7 7 4 15 -4 8 0 35 7 60 13 43 15 45 51 45 21 0 38 -4 38 -9 0 -5
9 -12 20 -16 22 -7 80 -62 80 -76 0 -5 5 -9 11 -9 5 0 7 -5 3 -12 -4 -6 -3 -8
3 -5 6 4 17 0 24 -9 7 -8 25 -22 41 -30 16 -8 27 -18 24 -22 -2 -4 41 -9 96
-11 134 -4 136 -2 132 130 -2 94 -10 129 -44 191 -13 22 -13 151 -1 164 5 5
11 27 15 49 13 93 19 117 32 122 8 3 14 15 14 27 0 15 12 27 38 41 20 10 56
38 79 62 23 24 46 43 53 43 16 0 60 31 60 42 0 13 21 33 43 41 9 3 17 11 17
16 0 5 10 13 22 17 51 16 59 34 56 135 -3 89 -4 94 -25 97 -22 3 -23 7 -24
125 0 67 -2 131 -3 142 -4 26 -65 92 -91 97 -41 7 -13 88 31 88 23 0 24 3 25
70 1 39 2 85 3 103 4 53 -19 97 -48 97 -15 0 -34 7 -43 16 -10 8 -31 26 -46
38 -25 20 -28 30 -33 97 -7 102 -11 117 -33 124 -10 3 -22 18 -26 33 -6 26
-38 73 -69 105 -8 8 -12 18 -8 22 4 4 1 5 -7 3 -14 -3 -94 98 -111 142 -6 14
-19 41 -30 61 -11 20 -20 51 -20 68 0 17 -4 31 -10 31 -5 0 -10 9 -10 19 0 11
-5 23 -11 26 -5 4 -14 17 -20 28 -20 48 -82 116 -105 117 -5 0 -26 15 -46 33
-19 17 -38 32 -41 32 -19 0 -157 72 -157 83 0 6 -5 12 -11 12 -5 0 -7 5 -3 12
4 6 3 8 -4 5 -17 -11 -39 3 -52 33 -7 16 -19 31 -27 34 -9 4 -13 13 -9 23 4
10 4 14 0 11 -9 -9 -82 60 -90 86 -4 12 -16 30 -28 42 -12 11 -34 37 -51 58
-38 47 -84 67 -160 71 -68 3 -80 6 -113 24 -13 7 -35 10 -51 6 -19 -4 -32 -1
-41 10 -7 8 -28 15 -50 15 -20 0 -50 6 -66 14 -45 22 -147 29 -439 30 -260 1
-335 7 -335 27 0 5 -7 9 -15 9 -8 0 -27 16 -42 35 -15 19 -34 35 -41 35 -7 0
-11 4 -8 9 15 24 -110 39 -182 21z m156 -3340 c2 -23 -1 -28 -13 -24 -18 7
-18 9 -5 35 14 25 15 24 18 -11z m-1413 -49 c3 -5 1 -12 -5 -16 -5 -3 -10 1
-10 9 0 18 6 21 15 7z m2576 -114 c-10 -9 -11 -8 -5 6 3 10 9 15 12 12 3 -3 0
-11 -7 -18z m-764 -1273 c-3 -3 -12 -4 -19 -1 -8 3 -5 6 6 6 11 1 17 -2 13 -5z"/>
<path d="M5320 4845 c0 -3 -1 -103 -1 -222 l0 -218 846 0 c465 0 845 -3 845
-7 0 -8 -17 -12 -35 -8 -5 1 -7 -2 -3 -6 4 -4 -36 -52 -88 -107 -607 -632
-1000 -1627 -1031 -2607 l-6 -195 245 3 245 3 6 192 c29 863 286 1583 824
2309 54 73 99 125 105 121 7 -3 8 -1 4 5 -9 15 192 255 206 246 7 -5 8 -3 4 5
-5 7 -1 20 8 30 13 14 15 52 16 236 l2 220 -1096 3 c-603 1 -1096 0 -1096 -3z"/>
</g>
</svg>
